HIERARCHY
ROOT mixamorig:Hips
{
	OFFSET 0.000000 201.639420 0.000000
	CHANNELS 6 Xposition Yposition Zposition Xrotation Yrotation Zrotation
	JOINT mixamorig:Spine
	{
		OFFSET 0.006200 19.524994 -2.481800
		CHANNELS 3 Xrotation Yrotation Zrotation
		JOINT mixamorig:Spine1
		{
			OFFSET -0.000900 22.835007 -2.825400
			CHANNELS 3 Xrotation Yrotation Zrotation
			JOINT mixamorig:Spine2
			{
				OFFSET -0.020600 26.552490 -3.193300
				CHANNELS 3 Xrotation Yrotation Zrotation
				JOINT mixamorig:Neck
				{
					OFFSET -0.060000 30.701813 1.352200
					CHANNELS 3 Xrotation Yrotation Zrotation
					JOINT mixamorig:Head
					{
						OFFSET -0.087200 22.547607 3.670900
						CHANNELS 3 Xrotation Yrotation Zrotation
						JOINT mixamorig:HeadTop_End
						{
							OFFSET -0.830600 40.355194 7.893500
							CHANNELS 3 Xrotation Yrotation Zrotation
							End Site
							{
								OFFSET 0.000000 30.592346 0.000000
							}
						}
						JOINT mixamorig:RightEye
						{
							OFFSET -6.302100 18.118591 16.197100
							CHANNELS 3 Xrotation Yrotation Zrotation
							End Site
							{
								OFFSET 0.000000 30.592346 0.000000
							}
						}
						JOINT mixamorig:LeftEye
						{
							OFFSET 6.741500 18.382690 16.401899
							CHANNELS 3 Xrotation Yrotation Zrotation
							End Site
							{
								OFFSET 0.000000 30.592346 0.000000
							}
						}
					}
				}
				JOINT mixamorig:LeftShoulder
				{
					OFFSET 11.924900 18.230499 1.425400
					CHANNELS 3 Xrotation Yrotation Zrotation
					JOINT mixamorig:LeftArm
					{
						OFFSET 25.435989 -0.697632 -5.229300
						CHANNELS 3 Xrotation Yrotation Zrotation
						JOINT mixamorig:LeftForeArm
						{
							OFFSET 54.684776 0.000000 0.000000
							CHANNELS 3 Xrotation Yrotation Zrotation
							JOINT mixamorig:LeftHand
							{
								OFFSET 55.098175 0.000000 0.000000
								CHANNELS 3 Xrotation Yrotation Zrotation
								JOINT mixamorig:LeftHandMiddle1
								{
									OFFSET 23.369751 0.000000 0.000000
									CHANNELS 3 Xrotation Yrotation Zrotation
									JOINT mixamorig:LeftHandMiddle2
									{
										OFFSET 6.378677 0.000000 0.000000
										CHANNELS 3 Xrotation Yrotation Zrotation
										JOINT mixamorig:LeftHandMiddle3
										{
											OFFSET 6.148331 0.000000 0.000000
											CHANNELS 3 Xrotation Yrotation Zrotation
											JOINT mixamorig:LeftHandMiddle4
											{
												OFFSET 6.582504 0.000000 0.000000
												CHANNELS 3 Xrotation Yrotation Zrotation
												End Site
												{
													OFFSET -1.168900 6.395691 1.028606
												}
											}
										}
									}
								}
								JOINT mixamorig:LeftHandThumb1
								{
									OFFSET 7.235672 -3.848206 5.434273
									CHANNELS 3 Xrotation Yrotation Zrotation
									JOINT mixamorig:LeftHandThumb2
									{
										OFFSET 6.568451 -3.792297 3.792300
										CHANNELS 3 Xrotation Yrotation Zrotation
										JOINT mixamorig:LeftHandThumb3
										{
											OFFSET 6.063080 -3.500519 3.500518
											CHANNELS 3 Xrotation Yrotation Zrotation
											JOINT mixamorig:LeftHandThumb4
											{
												OFFSET 4.793182 -2.767334 2.767349
												CHANNELS 3 Xrotation Yrotation Zrotation
												End Site
												{
													OFFSET 0.101639 6.054260 1.275483
												}
											}
										}
									}
								}
								JOINT mixamorig:LeftHandIndex1
								{
									OFFSET 23.101074 -0.309540 4.992809
									CHANNELS 3 Xrotation Yrotation Zrotation
									JOINT mixamorig:LeftHandIndex2
									{
										OFFSET 6.226883 0.000000 0.000000
										CHANNELS 3 Xrotation Yrotation Zrotation
										JOINT mixamorig:LeftHandIndex3
										{
											OFFSET 6.094330 0.000000 0.000000
											CHANNELS 3 Xrotation Yrotation Zrotation
											JOINT mixamorig:LeftHandIndex4
											{
												OFFSET 5.482605 0.000000 0.000000
												CHANNELS 3 Xrotation Yrotation Zrotation
												End Site
												{
													OFFSET -1.427902 5.233032 0.797164
												}
											}
										}
									}
								}
								JOINT mixamorig:LeftHandRing1
								{
									OFFSET 22.299240 0.021149 -3.964172
									CHANNELS 3 Xrotation Yrotation Zrotation
									JOINT mixamorig:LeftHandRing2
									{
										OFFSET 6.321869 0.000000 0.000000
										CHANNELS 3 Xrotation Yrotation Zrotation
										JOINT mixamorig:LeftHandRing3
										{
											OFFSET 5.899796 0.000000 0.000000
											CHANNELS 3 Xrotation Yrotation Zrotation
											JOINT mixamorig:LeftHandRing4
											{
												OFFSET 6.517899 0.000000 0.000000
												CHANNELS 3 Xrotation Yrotation Zrotation
												End Site
												{
													OFFSET -1.637299 6.232208 0.980890
												}
											}
										}
									}
								}
								JOINT mixamorig:LeftHandPinky1
								{
									OFFSET 20.463791 -0.302338 -8.562233
									CHANNELS 3 Xrotation Yrotation Zrotation
									JOINT mixamorig:LeftHandPinky2
									{
										OFFSET 6.908646 0.000000 0.000000
										CHANNELS 3 Xrotation Yrotation Zrotation
										JOINT mixamorig:LeftHandPinky3
										{
											OFFSET 4.622849 0.000000 0.000000
											CHANNELS 3 Xrotation Yrotation Zrotation
											JOINT mixamorig:LeftHandPinky4
											{
												OFFSET 5.216080 0.000000 0.000000
												CHANNELS 3 Xrotation Yrotation Zrotation
												End Site
												{
													OFFSET -0.606308 5.116241 0.814926
												}
											}
										}
									}
								}
							}
						}
					}
				}
				JOINT mixamorig:RightShoulder
				{
					OFFSET -12.001300 18.284088 1.348900
					CHANNELS 3 Xrotation Yrotation Zrotation
					JOINT mixamorig:RightArm
					{
						OFFSET -25.308500 -0.751312 -5.164599
						CHANNELS 3 Xrotation Yrotation Zrotation
						JOINT mixamorig:RightForeArm
						{
							OFFSET -54.684429 0.000000 0.000000
							CHANNELS 3 Xrotation Yrotation Zrotation
							JOINT mixamorig:RightHand
							{
								OFFSET -55.150291 0.000000 0.000000
								CHANNELS 3 Xrotation Yrotation Zrotation
								JOINT mixamorig:RightHandMiddle1
								{
									OFFSET -23.317566 0.000000 0.000000
									CHANNELS 3 Xrotation Yrotation Zrotation
									JOINT mixamorig:RightHandMiddle2
									{
										OFFSET -6.378403 0.000000 0.000000
										CHANNELS 3 Xrotation Yrotation Zrotation
										JOINT mixamorig:RightHandMiddle3
										{
											OFFSET -6.148193 0.000000 0.000000
											CHANNELS 3 Xrotation Yrotation Zrotation
											JOINT mixamorig:RightHandMiddle4
											{
												OFFSET -6.583389 0.000000 0.000000
												CHANNELS 3 Xrotation Yrotation Zrotation
												End Site
												{
													OFFSET 1.171692 6.395905 1.029786
												}
											}
										}
									}
								}
								JOINT mixamorig:RightHandThumb1
								{
									OFFSET -7.190521 -3.860474 5.435846
									CHANNELS 3 Xrotation Yrotation Zrotation
									JOINT mixamorig:RightHandThumb2
									{
										OFFSET -6.567429 -3.791718 3.791708
										CHANNELS 3 Xrotation Yrotation Zrotation
										JOINT mixamorig:RightHandThumb3
										{
											OFFSET -6.062469 -3.500153 3.500166
											CHANNELS 3 Xrotation Yrotation Zrotation
											JOINT mixamorig:RightHandThumb4
											{
												OFFSET -4.792618 -2.767029 2.767022
												CHANNELS 3 Xrotation Yrotation Zrotation
												End Site
												{
													OFFSET -0.100327 6.053253 1.276754
												}
											}
										}
									}
								}
								JOINT mixamorig:RightHandIndex1
								{
									OFFSET -23.048981 -0.310791 4.992554
									CHANNELS 3 Xrotation Yrotation Zrotation
									JOINT mixamorig:RightHandIndex2
									{
										OFFSET -6.227539 0.000000 0.000000
										CHANNELS 3 Xrotation Yrotation Zrotation
										JOINT mixamorig:RightHandIndex3
										{
											OFFSET -6.095047 0.000000 0.000000
											CHANNELS 3 Xrotation Yrotation Zrotation
											JOINT mixamorig:RightHandIndex4
											{
												OFFSET -5.484772 0.000000 0.000000
												CHANNELS 3 Xrotation Yrotation Zrotation
												End Site
												{
													OFFSET 1.420593 5.237305 0.797056
												}
											}
										}
									}
								}
								JOINT mixamorig:RightHandRing1
								{
									OFFSET -22.246323 0.020569 -3.963762
									CHANNELS 3 Xrotation Yrotation Zrotation
									JOINT mixamorig:RightHandRing2
									{
										OFFSET -6.322128 0.000000 0.000000
										CHANNELS 3 Xrotation Yrotation Zrotation
										JOINT mixamorig:RightHandRing3
										{
											OFFSET -5.900024 0.000000 0.000000
											CHANNELS 3 Xrotation Yrotation Zrotation
											JOINT mixamorig:RightHandRing4
											{
												OFFSET -6.518356 0.000000 0.000000
												CHANNELS 3 Xrotation Yrotation Zrotation
												End Site
												{
													OFFSET 1.636398 6.232697 0.982186
												}
											}
										}
									}
								}
								JOINT mixamorig:RightHandPinky1
								{
									OFFSET -20.411011 -0.303314 -8.561701
									CHANNELS 3 Xrotation Yrotation Zrotation
									JOINT mixamorig:RightHandPinky2
									{
										OFFSET -6.907349 0.000000 0.000000
										CHANNELS 3 Xrotation Yrotation Zrotation
										JOINT mixamorig:RightHandPinky3
										{
											OFFSET -4.623840 0.000000 0.000000
											CHANNELS 3 Xrotation Yrotation Zrotation
											JOINT mixamorig:RightHandPinky4
											{
												OFFSET -5.218353 0.000000 0.000000
												CHANNELS 3 Xrotation Yrotation Zrotation
												End Site
												{
													OFFSET 0.602097 5.118835 0.816273
												}
											}
										}
									}
								}
							}
						}
					}
				}
			}
		}
	}
	JOINT mixamorig:LeftUpLeg
	{
		OFFSET 18.168400 -13.561905 -0.039000
		CHANNELS 3 Xrotation Yrotation Zrotation
		JOINT mixamorig:LeftLeg
		{
			OFFSET 0.577358 -80.825211 -3.695000
			CHANNELS 3 Xrotation Yrotation Zrotation
			JOINT mixamorig:LeftFoot
			{
				OFFSET -0.577356 -83.370262 -6.520700
				CHANNELS 3 Xrotation Yrotation Zrotation
				JOINT mixamorig:LeftToeBase
				{
					OFFSET 0.750401 -20.798306 25.135401
					CHANNELS 3 Xrotation Yrotation Zrotation
					JOINT mixamorig:LeftToe_End
					{
						OFFSET -0.000500 0.001200 19.917799
						CHANNELS 3 Xrotation Yrotation Zrotation
						End Site
						{
							OFFSET 0.000000 19.917805 0.000000
						}
					}
				}
			}
		}
	}
	JOINT mixamorig:RightUpLeg
	{
		OFFSET -18.162500 -13.585098 -0.041000
		CHANNELS 3 Xrotation Yrotation Zrotation
		JOINT mixamorig:RightLeg
		{
			OFFSET -0.595024 -80.945297 -3.631900
			CHANNELS 3 Xrotation Yrotation Zrotation
			JOINT mixamorig:RightFoot
			{
				OFFSET 0.595024 -83.218193 -6.561200
				CHANNELS 3 Xrotation Yrotation Zrotation
				JOINT mixamorig:RightToeBase
				{
					OFFSET -0.753601 -20.807106 25.115000
					CHANNELS 3 Xrotation Yrotation Zrotation
					JOINT mixamorig:RightToe_End
					{
						OFFSET 0.000299 0.001700 19.918200
						CHANNELS 3 Xrotation Yrotation Zrotation
						End Site
						{
							OFFSET 0.000000 19.918203 0.000000
						}
					}
				}
			}
		}
	}
}
MOTION
Frames: 4
Frame Time: 0.033333
0.480119 27.906738 7.460526 82.051800 -4.082488 -2.864837 5.840475 -1.476711 -0.138816 -4.505669 -5.981536 1.125161 -3.978342 -6.220829 0.289843 -32.792582 -1.702239 16.058676 -6.181639 25.655048 -5.100554 -0.000000 0.000001 -0.000000 -0.000000 0.000001 -0.000000 -0.000000 0.000001 -0.000000 -32.444041 -38.481614 29.692103 -79.258465 -12.365340 -42.877377 0.000020 -47.580109 0.000020 -117.704022 16.510946 25.034332 0.405911 5.507041 -52.453169 3.387120 5.308613 -65.057477 0.282016 1.797462 -17.832381 -0.000000 -0.000002 -0.000002 1.567984 0.456413 2.719341 19.471734 -1.478288 7.637098 -4.536180 -9.613099 1.492983 0.000002 -0.000000 -0.000001 -1.882820 2.129438 -39.817015 2.947086 5.081723 -60.200529 0.514376 2.402400 -24.167376 -0.000003 -0.000002 0.000001 -0.074373 5.736812 -61.061427 4.422099 5.674497 -75.840385 0.582666 2.548962 -25.748001 -0.000001 0.000000 0.000001 2.216806 7.072464 -64.435431 4.422604 5.674615 -75.845781 1.294125 3.673943 -38.798449 -0.000001 0.000005 -0.000000 -20.875486 19.500603 15.423189 -54.224657 48.923904 38.187769 -0.000046 110.391170 0.000025 -42.846258 -8.113314 -56.436993 3.413070 -7.186226 51.650259 6.296821 -4.359607 110.634687 0.248728 -1.503072 18.790615 0.000000 0.000000 -0.000002 8.377136 -4.904122 11.022015 21.620206 -18.183873 -18.379207 -0.702964 -49.821203 -32.535220 0.000002 -0.000000 -0.000002 -1.101413 1.407149 15.159526 1.422244 -3.352071 45.972135 0.615859 -2.316435 29.773105 0.000002 0.000000 0.000001 -3.349029 -2.600427 57.010578 5.440867 -4.590906 99.698147 1.689045 -3.590394 50.376361 -0.000001 -0.000001 -0.000002 -3.996439 -3.303923 64.593850 4.058827 -4.618666 82.610503 2.315558 -4.026778 59.787228 0.000000 -0.000000 0.000001 -12.965458 33.063494 21.288950 22.521314 -9.332986 -9.852661 -10.082864 15.023013 23.427805 8.211300 14.471969 40.213019 0.000001 -0.000001 0.000000 -43.280682 -38.439420 -49.752382 30.120888 -2.167053 -1.055553 -4.912250 7.878880 13.972747 14.900169 -2.736291 -10.836710 0.000000 -0.000001 0.000000 
0.412738 28.091690 7.443588 81.863150 -3.863506 -2.914448 5.890936 -1.515734 -0.138999 -4.481102 -6.059189 1.121373 -3.956366 -6.301607 0.288496 -32.834314 -1.536935 15.380509 -5.959015 24.912832 -4.671600 -0.000000 0.000000 -0.000000 -0.000000 0.000000 -0.000000 -0.000000 0.000000 -0.000000 -32.401560 -38.533926 29.766992 -79.279105 -12.319468 -42.767161 0.000017 -47.866010 0.000007 -117.583523 16.552629 24.982892 0.344378 5.326221 -50.011857 3.317086 5.275613 -64.298089 0.258890 1.723940 -17.079703 -0.000002 0.000003 0.000001 1.755220 0.715327 2.259103 18.272546 -1.833330 8.054048 -4.380156 -9.338381 1.738172 0.000003 -0.000001 0.000000 -1.859209 1.918336 -38.149304 2.922608 5.067704 -59.923913 0.503119 2.377143 -23.897160 -0.000000 0.000000 0.000000 -0.555578 5.309280 -59.100199 4.426737 5.675641 -75.887513 0.578628 2.540607 -25.657039 -0.000001 0.000002 -0.000001 1.181669 6.526805 -63.272338 4.360383 5.658637 -75.215484 1.252029 3.621060 -38.136792 -0.000001 -0.000000 -0.000001 -20.858713 19.675082 15.424527 -54.018853 48.856729 37.970415 0.000020 110.419536 -0.000027 -42.422349 -7.879064 -56.438601 3.580016 -7.374654 50.536904 6.301568 -4.357823 110.697115 0.248728 -1.503102 18.790598 0.000002 -0.000000 0.000001 6.782254 -5.517837 10.105273 21.452659 -18.204662 -17.981091 -1.262626 -50.115301 -32.913749 -0.000001 0.000000 -0.000002 -1.035094 1.592949 13.924710 1.422235 -3.352046 45.972145 0.615859 -2.316436 29.773109 -0.000000 -0.000000 -0.000001 -2.673011 -2.922761 56.020539 5.443521 -4.590452 99.731342 1.689030 -3.590382 50.376378 -0.000001 0.000000 -0.000001 -3.489616 -3.612837 65.092727 3.891874 -4.593977 80.531489 2.293015 -4.013608 59.465888 -0.000002 0.000000 -0.000000 -12.852246 33.148011 21.339259 22.575003 -9.102832 -9.752128 -10.579842 14.320470 24.153086 10.147457 13.585292 38.639941 -0.000001 0.000000 0.000002 -43.041895 -38.420569 -49.626283 30.168792 -2.321703 -1.146546 -5.362663 7.899223 13.886262 16.536465 -3.474724 -12.113990 -0.000000 -0.000001 -0.000000 
-0.096085 28.300308 7.530701 81.491288 -3.338567 -2.983488 5.800597 -1.661180 -0.438960 -4.776356 -6.239949 0.772595 -4.262441 -6.485376 -0.043239 -32.399665 -0.710060 12.489462 -5.008251 22.443117 -2.054547 0.000003 -0.000001 0.000001 0.000003 -0.000001 0.000001 0.000003 -0.000001 0.000001 -32.386404 -38.503504 29.781182 -77.085658 -13.012427 -42.672590 0.000035 -48.415359 0.000031 -118.616808 15.911713 24.120902 0.274123 4.996026 -45.005571 3.319672 5.276852 -64.326107 0.259821 1.726956 -17.110450 0.000004 0.000002 -0.000004 1.961155 1.129734 1.727536 17.115944 -1.917305 8.530397 -4.161762 -8.882456 2.045905 0.000000 -0.000002 -0.000001 -1.611907 1.937649 -35.988157 2.905463 5.057760 -59.729615 0.496442 2.362077 -23.736022 -0.000000 0.000001 -0.000001 -2.152774 3.832765 -54.847160 4.274433 5.635355 -74.341848 0.587288 2.558507 -25.851549 -0.000001 -0.000001 0.000001 -2.680939 4.242049 -60.675863 4.067929 5.573623 -72.227652 1.059503 3.361901 -34.976415 0.000000 -0.000003 -0.000000 -20.947879 19.459603 15.520773 -52.134178 48.161498 38.247157 -0.000086 110.685913 0.000088 -40.919766 -7.020494 -56.428649 4.326997 -8.444670 45.226272 6.297737 -4.359241 110.646688 0.248660 -1.502870 18.787846 0.000002 0.000000 -0.000000 1.210001 -10.284258 7.540945 21.322935 -18.028750 -16.930198 -2.171192 -51.308306 -32.914142 0.000000 -0.000001 0.000001 -0.452985 1.755723 6.820421 1.421921 -3.351753 45.966719 0.615859 -2.316435 29.773112 0.000001 0.000000 -0.000002 -0.905679 -3.847658 52.494833 5.440892 -4.590914 99.698468 1.689055 -3.590379 50.376388 -0.000001 -0.000001 0.000001 -1.597892 -4.399089 64.073622 3.440470 -4.495736 74.839592 2.261867 -3.995150 59.019931 0.000001 -0.000001 0.000001 -13.713318 33.036266 22.148248 23.755492 -8.458733 -9.508871 -11.660636 12.775188 25.819403 14.662857 12.702518 37.407259 -0.000002 0.000001 0.000000 -42.852200 -38.202662 -50.708875 32.195521 -2.069335 0.370129 -7.104631 7.932165 12.900683 26.758897 -8.877547 -21.077557 -0.000000 -0.000000 0.000002 
-1.692331 28.569763 7.248886 81.151247 -2.386038 -2.715930 5.614725 -2.183190 -1.910762 -5.357799 -6.825748 -0.640676 -4.895112 -7.069502 -1.427635 -31.320242 0.014605 8.966215 -3.439514 17.813888 0.674585 0.000001 0.000001 -0.000001 0.000001 0.000001 -0.000001 0.000001 0.000001 -0.000001 -31.209552 -39.188521 31.300544 -72.129400 -15.148429 -42.138108 0.000001 -48.790947 -0.000013 -121.926663 14.580220 22.163773 0.078958 4.615048 -41.834574 3.546385 5.379488 -66.767114 0.337814 1.962381 -19.533151 0.000004 0.000002 -0.000002 2.272055 1.723340 1.156390 15.803529 -1.826396 9.107106 -3.871989 -8.239193 2.433336 -0.000001 0.000002 -0.000000 -1.275443 2.476566 -36.549561 2.937407 5.076203 -60.091130 0.513438 2.400278 -24.144801 0.000003 0.000002 -0.000002 -4.023833 2.149754 -52.870350 4.064556 5.572581 -72.193050 0.593171 2.570604 -25.983151 -0.000001 -0.000002 0.000002 -7.843884 0.900357 -59.234577 3.819669 5.488279 -69.652500 0.893011 3.110774 -32.027792 -0.000002 -0.000000 0.000002 -21.142019 18.032198 15.378063 -49.377323 45.651151 42.038506 -0.000063 111.909036 0.000066 -37.018410 -6.332839 -56.667460 5.314716 -10.842062 36.697524 6.261962 -4.372524 110.176777 0.248056 -1.501125 18.765229 0.000001 0.000001 -0.000004 -8.197841 -15.037677 2.877826 21.308443 -17.662550 -15.527168 -3.089179 -53.487983 -32.160526 0.000000 -0.000001 0.000000 0.377186 1.609944 -4.964073 1.420537 -3.350412 45.942916 0.615859 -2.316435 29.773105 0.000002 0.000000 0.000001 1.289124 -5.462514 47.057193 5.433277 -4.592192 99.603248 1.688050 -3.589547 50.360474 -0.000002 0.000000 0.000001 1.113420 -5.495758 56.797661 3.187370 -4.419647 71.584358 2.282083 -4.007149 59.309490 0.000001 -0.000000 0.000000 -16.093671 32.283920 23.911572 27.022235 -7.903471 -9.211057 -13.646037 10.648820 28.201687 20.201213 11.122761 34.771284 0.000001 0.000002 0.000000 -44.510871 -37.383258 -53.788464 40.072153 -1.467754 2.690844 -8.681198 7.841372 11.865533 21.044042 -2.897972 -11.856612 0.000000 -0.000001 0.000000 
